<svg width="166" height="46" viewBox="0 0 166 46" fill="none" xmlns="http://www.w3.org/2000/svg">
<path d="M20.637 30.7317L19.0217 29.0531L31.4055 4.85546L29.6635 4.38037L36.3464 5.42556L37.9617 7.00917L39.2602 7.73763L41.0022 9.38459L43.1243 11.3483L44.9296 14.1988L46.3865 18.0628V24.7773L41.509 31.2384V38.8715L34.7945 34.7224L25.4828 33.3922L20.637 30.7317Z" fill="#1E293B"/>
<path fill-rule="evenodd" clip-rule="evenodd" d="M20.5658 30.7579C21.0912 30.8619 21.6073 31.0105 22.1347 31.104C22.5739 31.1819 23.0339 31.1917 23.4613 31.334C24.1182 31.5527 24.7109 32.0339 25.3469 32.322C26.76 32.9624 28.1854 33.4498 29.6965 33.7213C30.8354 33.9261 32.0812 33.9941 33.2295 33.8529C33.6439 33.802 34.0599 33.7624 34.4704 33.681C34.6381 33.6478 34.8615 33.526 35.0307 33.5869C35.2607 33.6693 35.4901 33.9008 35.6909 34.0458C36.1164 34.3529 36.5391 34.6644 36.9642 34.9717C38.3652 35.9849 39.7213 37.0869 41.1264 38.0869C41.0713 37.0426 40.8512 35.9617 40.7114 34.9244C40.5478 33.7111 40.445 32.4879 40.245 31.2803C44.2541 28.8393 46.8462 23.903 46.2435 18.8417C45.9806 16.6335 45.1973 14.5326 44.0083 12.7291C43.1555 11.4353 42.0704 10.2138 40.8454 9.33755C40.175 8.858 39.3187 8.562 38.6992 8.02432C38.3602 7.73002 38.1335 7.28071 37.8355 6.93787C37.3654 6.39699 36.822 5.96598 36.3305 5.45577C36.34 5.36825 36.9313 5.62591 37.0493 5.66382C37.7631 5.89337 38.4842 6.23451 39.1563 6.58182C41.7646 7.92955 44.126 9.97873 45.6571 12.6868C48.3213 17.3984 48.3986 23.2676 45.5751 27.9328C44.5677 29.5976 43.2515 30.8629 41.7798 32.0141C41.7823 32.6836 41.9294 33.4349 42.0392 34.0937C42.3163 35.756 42.4507 37.4713 42.6332 39.1488C42.7053 39.812 42.8953 40.5926 42.8626 41.2517C42.6295 41.1412 42.3861 40.8735 42.181 40.704C41.7734 40.3673 41.3445 40.0539 40.9262 39.7334C39.5065 38.6454 38.0667 37.5831 36.6296 36.523C36.2056 36.2102 35.7747 35.9082 35.3528 35.5922C35.1622 35.4493 34.9357 35.1866 34.7107 35.1208C34.4135 35.0341 33.9709 35.2264 33.6678 35.2675C32.9697 35.362 32.2693 35.3921 31.5657 35.3725C29.5637 35.3173 27.6004 34.839 25.7224 34.0912C24.2766 33.5154 22.8923 32.7021 21.6492 31.71C21.3652 31.4834 21.0661 31.2775 20.7892 31.0399C20.7078 30.97 20.5446 30.8736 20.5658 30.7579Z" fill="#F8FAFC"/>
<path fill-rule="evenodd" clip-rule="evenodd" d="M1.01833 19.3851C1.29332 17.5906 3.33255 17.9946 4.5365 17.9914C7.09435 17.9846 9.65241 17.955 12.2105 17.9705C13.0773 17.9756 14.4663 18.2961 15.151 17.5563C16.0137 16.6241 15.3136 15.1481 14.1991 15.07C12.7096 14.9652 11.189 15.0606 9.69661 15.063C9.10048 15.0638 8.44437 15.1569 7.857 15.0293C6.93349 14.8287 6.41682 13.7052 6.70563 12.7523C7.09124 11.4793 8.36471 11.5845 9.35794 11.59C11.9699 11.6049 14.5833 11.5707 17.1957 11.5664C18.3032 11.5645 20.21 11.8107 20.5493 10.2046C20.8106 8.96804 20.0774 7.86477 18.934 7.72849C17.9813 7.61499 16.9832 7.7008 16.0252 7.69868C14.1295 7.69463 12.234 7.70272 10.3381 7.7123C9.85534 7.71464 9.35269 7.73232 8.92618 7.4457C8.139 6.91674 7.98495 5.67825 8.55304 4.9076C9.18695 4.04773 10.4047 4.3105 11.2977 4.31093C13.7182 4.31284 16.139 4.23639 18.5584 4.15995C20.4069 4.1016 22.2613 4.11459 24.1089 4.03644C28.7062 3.84202 33.8601 4.30645 37.091 8.39288C37.6753 9.13201 38.2138 9.89265 38.6428 10.7519C39.2154 11.8982 39.6771 13.0966 39.9239 14.3786C40.2341 15.9891 40.3083 17.6053 40.0845 19.2371C39.8814 20.7194 39.444 22.1956 38.799 23.518C38.2504 24.6427 37.5454 25.6519 36.7087 26.5399C36.0211 27.2694 35.2362 27.923 34.4056 28.4459C32.9693 29.3499 31.3922 29.9919 29.7425 30.2257C27.6135 30.5273 25.6005 30.043 23.5111 29.6957C21.7527 29.4033 20.0063 29.1583 18.2403 28.9459C16.1966 28.7002 14.0884 28.7594 12.035 28.7502C11.1652 28.7462 9.97316 28.9796 9.26855 28.2962C8.43385 27.4868 8.57874 25.8131 9.7007 25.3785C10.1017 25.2232 10.5705 25.2699 10.9884 25.2716C11.7468 25.2748 12.5053 25.2739 13.2639 25.2733C13.749 25.2728 14.2703 25.3167 14.7362 25.141C15.9466 24.6845 16.1553 22.8353 15.2096 21.9633C14.3541 21.1741 12.9702 21.4222 11.9314 21.4275C9.36905 21.4407 6.80612 21.4326 4.24359 21.4283C3.0525 21.4264 1.38544 21.716 1.04131 20.0369C0.998466 19.8278 0.985805 19.5974 1.01833 19.3851ZM20.8533 18.4573C20.8518 18.4749 20.8505 18.4925 20.8491 18.5101C20.8491 18.5106 20.8491 18.5111 20.849 18.5116C22.1122 18.5717 23.4207 18.4528 24.6938 18.4682C25.1314 18.4733 25.6878 18.3715 26.1106 18.4922C25.2944 20.663 24.3535 22.811 23.4012 24.9153C23.1167 25.5439 22.8464 26.1877 22.5414 26.8039C22.4099 27.0699 22.32 27.3831 22.1392 27.6152C22.0997 27.6789 22.2828 27.5382 22.2981 27.5215C22.3729 27.44 22.4399 27.3493 22.5044 27.2577C22.7324 26.9347 22.9804 26.6387 23.2304 26.3363C23.9859 25.4225 24.7734 24.5403 25.5388 23.6364C27.2092 21.6638 28.9384 19.7065 30.5285 17.6571C30.9059 17.1707 31.3169 16.7063 31.713 16.2376C31.8793 16.0408 32.194 15.7742 32.2727 15.5242C31.9144 15.6558 31.3998 15.5268 31.0236 15.5244C30.0816 15.5187 29.1399 15.5091 28.1981 15.495C27.817 15.4893 27.1013 15.6328 26.7681 15.4446C27.7971 13.2184 28.4616 10.7953 29.4282 8.5364C29.6591 7.99659 29.8917 7.4557 30.1151 6.91227C30.1454 6.83859 30.3229 6.48893 30.2403 6.44847C27.9056 9.25275 25.7589 12.2678 23.4807 15.1315C22.6189 16.215 21.8387 17.5076 20.8533 18.4573Z" fill="#F8FAFC"/>
<path d="M20.8533 18.4573C20.8518 18.4749 20.8505 18.4925 20.8491 18.5101L20.849 18.5116C22.1122 18.5717 23.4207 18.4528 24.6938 18.4682C25.1314 18.4733 25.6878 18.3715 26.1106 18.4922C25.2944 20.663 24.3535 22.811 23.4012 24.9153C23.1167 25.5439 22.8464 26.1877 22.5414 26.8039C22.4099 27.0699 22.32 27.3831 22.1392 27.6152C22.0997 27.6789 22.2828 27.5382 22.2981 27.5215C22.3729 27.44 22.4399 27.3493 22.5044 27.2577C22.7324 26.9347 22.9804 26.6387 23.2304 26.3363C23.9859 25.4225 24.7734 24.5403 25.5388 23.6364C27.2092 21.6638 28.9384 19.7065 30.5285 17.6571C30.9059 17.1707 31.3169 16.7063 31.713 16.2376C31.8793 16.0408 32.194 15.7742 32.2727 15.5242C31.9144 15.6558 31.3998 15.5268 31.0236 15.5244C30.0816 15.5187 29.1399 15.5091 28.1981 15.495C27.817 15.4893 27.1013 15.6328 26.7681 15.4446C27.7971 13.2184 28.4616 10.7953 29.4282 8.5364C29.6591 7.99659 29.8917 7.4557 30.1151 6.91227C30.1454 6.83859 30.3229 6.48893 30.2403 6.44847C27.9056 9.25275 25.7589 12.2678 23.4807 15.1315C22.6189 16.215 21.8387 17.5076 20.8533 18.4573Z" fill="#4C51BF"/>
<path fill-rule="evenodd" clip-rule="evenodd" d="M2.08617 5.53913C2.40205 4.2951 3.41437 4.30639 4.38909 4.32683C4.74471 4.33429 5.16089 4.3032 5.49235 4.47206C6.15236 4.8083 6.51577 5.69586 6.30972 6.45778C6.00338 7.59065 5.02846 7.69137 4.11002 7.65432C3.68935 7.63728 3.26382 7.65709 2.87861 7.43797C2.29611 7.10641 1.90622 6.24781 2.08617 5.53913Z" fill="#F8FAFC"/>
<path fill-rule="evenodd" clip-rule="evenodd" d="M3.54463 26.6248C3.9316 24.4259 7.03651 25.0792 6.69453 27.2497C6.34612 29.461 3.15824 28.8202 3.54463 26.6248Z" fill="#F8FAFC"/>
<path fill-rule="evenodd" clip-rule="evenodd" d="M58.0546 12.7927C58.3177 12.5126 59.4022 12.6698 59.7975 12.6688C61.5009 12.6644 63.2044 12.6554 64.9075 12.6517C68.2603 12.6441 71.6367 13.1028 74.0996 15.4649C78.0892 19.291 77.9378 26.2819 73.8008 29.962C71.8471 31.7 69.1107 32.4858 66.4629 32.5884C64.5747 32.6614 62.6735 32.6055 60.7838 32.6011C60.1842 32.5998 59.5841 32.5905 58.9845 32.5944C58.6795 32.5965 58.3182 32.6594 58.0208 32.6002C57.9938 29.5442 58.0208 26.4862 58.0292 23.4299C58.0336 21.8065 57.9583 20.1667 58.0336 18.5454C58.2594 18.3765 58.6798 18.4414 58.9619 18.4437C59.7744 18.4499 60.5882 18.4509 61.4007 18.443C61.6394 18.4407 62.2339 18.3379 62.3757 18.5368C62.2829 19.6884 62.3597 20.8765 62.3639 22.032C62.3722 24.3271 62.3858 26.6211 62.4091 28.9155C64.8928 28.6884 67.3774 29.3501 69.6493 28.0451C73.5775 25.7884 73.3949 19.5403 69.5912 17.2789C68.0476 16.3612 66.1651 16.4349 64.4155 16.4226C62.3434 16.4081 60.2529 16.2729 58.1823 16.3743C58.0041 16.2639 58.1095 15.6562 58.1082 15.4577C58.1035 14.5686 58.0612 13.6816 58.0546 12.7927Z" fill="#4C51BF"/>
<path fill-rule="evenodd" clip-rule="evenodd" d="M78.1638 17.693C79.504 17.6771 80.9283 17.8221 82.2575 17.661C83.1735 20.9486 84.0864 24.2649 85.1193 27.521C85.2434 27.4947 85.29 27.0543 85.3266 26.9492C85.5403 26.3365 85.7108 25.7079 85.9241 25.0939C86.4033 23.7138 86.9025 22.3374 87.358 20.9496C87.7121 19.8701 88.0292 18.7223 88.5188 17.6939C89.2488 17.6561 89.9886 17.6752 90.72 17.6711C90.9893 17.6697 91.4318 17.5662 91.6657 17.6767C92.6118 20.0514 93.2732 22.5508 94.1469 24.9554C94.3659 25.5586 94.5736 26.1736 94.7575 26.7872C94.8027 26.938 94.8625 27.3206 95.0102 27.3917C95.4576 25.3826 96.1436 23.4099 96.6727 21.4175C96.8874 20.6089 97.1175 19.8041 97.3353 18.9962C97.4477 18.5785 97.5218 18.0791 97.7284 17.6969C99.147 17.6615 100.569 17.7158 101.987 17.6897C102.065 17.7818 101.76 18.3877 101.717 18.5235C101.425 19.4662 101.125 20.4087 100.814 21.346C99.5805 25.0722 98.2931 28.8189 97.2138 32.5896C96.8633 32.6525 96.4387 32.5861 96.0807 32.5821C95.1453 32.5717 94.1512 32.4917 93.2227 32.6076C93.1087 32.4831 93.0692 32.1899 93.014 32.024C92.8834 31.6304 92.7536 31.2372 92.6113 30.8476C92.0353 29.2708 91.5397 27.6651 90.9766 26.0834C90.7595 25.4733 90.5304 24.8627 90.3425 24.2435C90.2987 24.099 90.0823 23.3078 90.003 23.3563C89.783 24.442 89.2469 25.5373 88.8598 26.5793C88.3653 27.9105 87.9256 29.2617 87.4654 30.6036C87.2487 31.2358 86.8865 31.9138 86.8016 32.5773C86.4281 32.688 85.8639 32.5747 85.4691 32.5728C84.5856 32.5691 83.6414 32.6779 82.7653 32.5789C81.4149 29.0018 80.4623 25.2654 79.2615 21.6371C78.8459 20.3809 78.5815 18.9831 78 17.7918C78.0545 17.7589 78.1093 17.7261 78.1638 17.693Z" fill="#4C51BF"/>
<path fill-rule="evenodd" clip-rule="evenodd" d="M104.044 13.3091C104.125 12.9856 104.316 12.6461 104.557 12.3803C106.121 10.6544 109.446 12.1685 108.95 14.1189C108.427 16.1756 104.506 16.0998 104.042 14.0571C103.988 13.8164 103.984 13.5492 104.044 13.3091Z" fill="#4C51BF"/>
<path fill-rule="evenodd" clip-rule="evenodd" d="M104.058 17.6881C105.326 17.6883 106.689 17.5419 107.946 17.697C107.925 21.0869 107.95 24.4787 107.954 27.8691C107.956 28.9607 107.959 30.052 107.959 31.1435C107.958 31.5998 108.04 32.119 107.975 32.5679C106.707 32.7688 105.331 32.3648 104.049 32.5782C103.943 31.9102 104.057 31.1215 104.058 30.4416C104.06 28.9997 104.055 27.5576 104.053 26.1154C104.051 24.2444 104.047 22.3733 104.046 20.5024C104.045 19.5879 103.935 18.5928 104.058 17.6881Z" fill="#4C51BF"/>
<path fill-rule="evenodd" clip-rule="evenodd" d="M113.032 25.7634C113.229 24.0704 113.046 22.2478 113.048 20.5422C113.05 17.9485 113.172 15.3213 113.05 12.7319C113.333 12.5881 113.818 12.677 114.134 12.6761C115.021 12.6737 115.976 12.572 116.855 12.6645C117.026 13.9304 116.862 15.342 116.863 16.6217C116.864 19.3137 116.865 22.0055 116.873 24.6976C116.876 25.6971 116.878 26.6972 116.886 27.6967C116.89 28.1008 116.781 28.6859 116.908 29.0639C118.617 28.9388 120.364 29.0521 122.077 29.0565C123.354 29.0597 124.731 28.9236 125.994 29.1204C125.887 30.2102 125.9 31.4836 126 32.575C124.879 32.4407 123.664 32.566 122.534 32.5771C120.437 32.5976 118.339 32.5937 116.241 32.5923C115.194 32.5914 114.11 32.6712 113.069 32.5873C113.048 30.3209 112.95 28.0276 113.032 25.7634Z" fill="#F8FAFC"/>
<path fill-rule="evenodd" clip-rule="evenodd" d="M128.029 13.2913C128.08 13.0172 128.204 12.756 128.375 12.5169C129.155 11.4295 131.085 11.373 132.184 12.1529C132.825 12.6076 133.1 13.3265 132.968 13.9952C132.915 14.2596 132.801 14.5218 132.633 14.7535C131.865 15.8152 129.896 15.8763 128.81 15.1072C128.177 14.6591 127.906 13.9549 128.029 13.2913Z" fill="#F8FAFC"/>
<path fill-rule="evenodd" clip-rule="evenodd" d="M129.026 18.6856C129.922 18.6305 130.828 18.6671 131.726 18.6627C132.096 18.6609 132.633 18.5673 132.977 18.6851C132.909 19.4989 132.983 20.3454 132.98 21.1629C132.973 22.9262 132.967 24.6891 132.981 26.4523C132.996 28.4714 132.798 30.5717 133 32.581C131.709 32.6303 130.371 32.642 129.08 32.6001C128.922 31.3873 129.047 30.0977 129.045 28.8749C129.041 26.6715 129.036 24.4681 129.037 22.2647C129.037 21.0765 129.102 19.8716 129.026 18.6856Z" fill="#F8FAFC"/>
<path fill-rule="evenodd" clip-rule="evenodd" d="M135.065 17.683C136.335 17.649 137.611 17.7073 138.881 17.632C139.06 17.8833 139.107 18.2687 139.217 18.5619C139.517 19.3566 139.791 20.1675 140.065 20.9725C140.91 23.4554 141.844 25.9083 142.52 28.4445C142.654 28.4691 142.707 27.9711 142.742 27.862C142.946 27.2108 143.169 26.5708 143.4 25.9293C144.081 24.035 144.752 22.1355 145.415 20.2342C145.703 19.4069 145.917 18.444 146.309 17.6694C147.136 17.65 147.964 17.6519 148.792 17.6483C149.182 17.6467 149.615 17.5887 150 17.6652C149.059 19.9026 148.278 22.2488 147.431 24.5292C146.434 27.2117 145.32 29.8535 144.392 32.5641C144.215 32.6857 143.733 32.5903 143.517 32.5877C142.857 32.5797 142.197 32.5767 141.537 32.579C141.279 32.58 140.888 32.6722 140.652 32.5676C140.439 31.708 140.041 30.882 139.731 30.0561C139.089 28.3446 138.423 26.6424 137.768 24.936C137.115 23.2333 136.482 21.5215 135.798 19.8319C135.52 19.1446 135.329 18.4077 135 17.745C135.022 17.7242 135.043 17.7036 135.065 17.683Z" fill="#F8FAFC"/>
<path fill-rule="evenodd" clip-rule="evenodd" d="M151.032 24.8608C151.304 23.0603 151.761 21.3004 153.091 19.9587C155.945 17.0797 161.319 16.6839 164.176 19.7955C165.99 21.7712 166.063 24.2615 165.978 26.7777C165.829 26.8854 165.376 26.8057 165.191 26.8073C164.459 26.8136 163.726 26.8138 162.994 26.8174C160.324 26.8303 157.616 26.7102 154.955 26.9268C155.161 27.7441 155.532 28.593 156.115 29.2158C157.3 30.4819 159.374 30.637 160.932 30.1243C161.445 29.9553 161.915 29.6765 162.336 29.3381C162.522 29.1883 162.752 28.8778 162.985 28.8338C163.652 29.5863 164.345 30.4082 165.203 30.95C164.612 31.8901 163.418 32.6127 162.416 33.0124C159.619 34.1267 156.026 33.7282 153.683 31.7712C151.667 30.0877 150.819 27.4313 151.032 24.8608ZM154.98 23.8975C154.94 24.0904 154.961 23.9932 154.916 24.1895C156.448 24.2675 157.997 24.2112 159.53 24.216C160.465 24.2189 161.466 24.3225 162.393 24.2139C162.408 23.8477 162.281 23.4674 162.167 23.1239C161.546 21.2485 159.622 20.4525 157.759 20.945C156.287 21.3339 155.404 22.4871 154.98 23.8975Z" fill="#F8FAFC"/>
</svg>
