<svg width="48" height="46" viewBox="0 0 48 46" fill="none" xmlns="http://www.w3.org/2000/svg">
<path d="M20.637 30.7317L19.0217 29.0531L31.4056 4.85546L29.6636 4.38037L36.3465 5.42556L37.9617 7.00917L39.2603 7.73763L41.0023 9.38459L43.1243 11.3483L44.9296 14.1988L46.3866 18.0628V24.7773L41.509 31.2384V38.8715L34.7945 34.7224L25.4829 33.3922L20.637 30.7317Z" fill="#1E293B"/>
<path fill-rule="evenodd" clip-rule="evenodd" d="M20.5659 30.7579C21.0913 30.8619 21.6074 31.0105 22.1348 31.104C22.5739 31.1819 23.0339 31.1917 23.4614 31.334C24.1183 31.5527 24.7109 32.0339 25.347 32.322C26.7601 32.9624 28.1855 33.4498 29.6965 33.7213C30.8354 33.9261 32.0813 33.9941 33.2295 33.8529C33.6439 33.802 34.0599 33.7624 34.4705 33.681C34.6382 33.6478 34.8615 33.526 35.0308 33.5869C35.2608 33.6693 35.4902 33.9008 35.691 34.0458C36.1165 34.3529 36.5391 34.6644 36.9643 34.9717C38.3653 35.9849 39.7213 37.0869 41.1265 38.0869C41.0714 37.0426 40.8513 35.9617 40.7115 34.9244C40.5479 33.7111 40.445 32.4879 40.245 31.2803C44.2542 28.8393 46.8463 23.903 46.2435 18.8417C45.9806 16.6335 45.1973 14.5326 44.0084 12.7291C43.1556 11.4353 42.0704 10.2138 40.8454 9.33755C40.1751 8.858 39.3188 8.562 38.6993 8.02432C38.3602 7.73002 38.1335 7.28071 37.8356 6.93787C37.3654 6.39699 36.8221 5.96598 36.3305 5.45577C36.3401 5.36825 36.9313 5.62591 37.0494 5.66382C37.7631 5.89337 38.4843 6.23451 39.1564 6.58182C41.7647 7.92955 44.126 9.97873 45.6571 12.6868C48.3213 17.3984 48.3987 23.2676 45.5752 27.9328C44.5677 29.5976 43.2516 30.8629 41.7799 32.0141C41.7824 32.6836 41.9294 33.4349 42.0393 34.0937C42.3164 35.756 42.4508 37.4713 42.6333 39.1488C42.7053 39.812 42.8954 40.5926 42.8627 41.2517C42.6296 41.1412 42.3861 40.8735 42.181 40.704C41.7734 40.3673 41.3446 40.0539 40.9263 39.7334C39.5065 38.6454 38.0667 37.5831 36.6297 36.523C36.2057 36.2102 35.7747 35.9082 35.3529 35.5922C35.1622 35.4493 34.9357 35.1866 34.7108 35.1208C34.4136 35.0341 33.9709 35.2264 33.6679 35.2675C32.9697 35.362 32.2694 35.3921 31.5658 35.3725C29.5637 35.3173 27.6004 34.839 25.7225 34.0912C24.2766 33.5154 22.8923 32.7021 21.6492 31.71C21.3653 31.4834 21.0662 31.2775 20.7892 31.0399C20.7078 30.97 20.5446 30.8736 20.5659 30.7579Z" fill="#F8FAFC"/>
<path fill-rule="evenodd" clip-rule="evenodd" d="M1.01833 19.3851C1.29332 17.5906 3.33255 17.9946 4.5365 17.9914C7.09435 17.9846 9.65241 17.955 12.2105 17.9705C13.0773 17.9756 14.4663 18.2961 15.151 17.5563C16.0137 16.6241 15.3136 15.1481 14.1991 15.07C12.7096 14.9652 11.189 15.0606 9.69661 15.063C9.10048 15.0638 8.44437 15.1569 7.857 15.0293C6.93349 14.8287 6.41682 13.7052 6.70563 12.7523C7.09124 11.4793 8.36471 11.5845 9.35794 11.59C11.9699 11.6049 14.5833 11.5707 17.1957 11.5664C18.3032 11.5645 20.21 11.8107 20.5493 10.2046C20.8106 8.96804 20.0774 7.86477 18.934 7.72849C17.9813 7.61499 16.9832 7.7008 16.0252 7.69868C14.1295 7.69463 12.234 7.70272 10.3381 7.7123C9.85534 7.71464 9.35269 7.73232 8.92618 7.4457C8.139 6.91674 7.98495 5.67825 8.55304 4.9076C9.18695 4.04773 10.4047 4.3105 11.2977 4.31093C13.7182 4.31284 16.139 4.23639 18.5584 4.15995C20.4069 4.1016 22.2613 4.11459 24.1089 4.03644C28.7062 3.84202 33.8601 4.30645 37.091 8.39288C37.6753 9.13201 38.2138 9.89265 38.6428 10.7519C39.2154 11.8982 39.6771 13.0966 39.9239 14.3786C40.2341 15.9891 40.3083 17.6053 40.0845 19.2371C39.8814 20.7194 39.444 22.1956 38.799 23.518C38.2504 24.6427 37.5454 25.6519 36.7087 26.5399C36.0211 27.2694 35.2362 27.923 34.4056 28.4459C32.9693 29.3499 31.3922 29.9919 29.7425 30.2257C27.6135 30.5273 25.6005 30.043 23.5111 29.6957C21.7527 29.4033 20.0063 29.1583 18.2403 28.9459C16.1966 28.7002 14.0884 28.7594 12.035 28.7502C11.1652 28.7462 9.97316 28.9796 9.26855 28.2962C8.43385 27.4868 8.57874 25.8131 9.7007 25.3785C10.1017 25.2232 10.5705 25.2699 10.9884 25.2716C11.7468 25.2748 12.5053 25.2739 13.2639 25.2733C13.749 25.2728 14.2703 25.3167 14.7362 25.141C15.9466 24.6845 16.1553 22.8353 15.2096 21.9633C14.3541 21.1741 12.9702 21.4222 11.9314 21.4275C9.36905 21.4407 6.80612 21.4326 4.24359 21.4283C3.0525 21.4264 1.38544 21.716 1.04131 20.0369C0.998466 19.8278 0.985805 19.5974 1.01833 19.3851ZM20.8533 18.4573C20.8518 18.4749 20.8505 18.4925 20.8491 18.5101C20.8491 18.5106 20.8491 18.5111 20.849 18.5116C22.1122 18.5717 23.4207 18.4528 24.6938 18.4682C25.1314 18.4733 25.6878 18.3715 26.1106 18.4922C25.2944 20.663 24.3535 22.811 23.4012 24.9153C23.1167 25.5439 22.8464 26.1877 22.5414 26.8039C22.4099 27.0699 22.32 27.3831 22.1392 27.6152C22.0997 27.6789 22.2828 27.5382 22.2981 27.5215C22.3729 27.44 22.4399 27.3493 22.5044 27.2577C22.7324 26.9347 22.9804 26.6387 23.2304 26.3363C23.9859 25.4225 24.7734 24.5403 25.5388 23.6364C27.2092 21.6638 28.9384 19.7065 30.5285 17.6571C30.9059 17.1707 31.3169 16.7063 31.713 16.2376C31.8793 16.0408 32.194 15.7742 32.2727 15.5242C31.9144 15.6558 31.3998 15.5268 31.0236 15.5244C30.0816 15.5187 29.1399 15.5091 28.1981 15.495C27.817 15.4893 27.1013 15.6328 26.7681 15.4446C27.7971 13.2184 28.4616 10.7953 29.4282 8.5364C29.6591 7.99659 29.8917 7.4557 30.1151 6.91227C30.1454 6.83859 30.3229 6.48893 30.2403 6.44847C27.9056 9.25275 25.7589 12.2678 23.4807 15.1315C22.6189 16.215 21.8387 17.5076 20.8533 18.4573Z" fill="#F8FAFC"/>
<path d="M20.8533 18.4573C20.8518 18.4749 20.8505 18.4925 20.8491 18.5101L20.849 18.5116C22.1122 18.5717 23.4207 18.4528 24.6938 18.4682C25.1314 18.4733 25.6878 18.3715 26.1106 18.4922C25.2944 20.663 24.3535 22.811 23.4012 24.9153C23.1167 25.5439 22.8464 26.1877 22.5414 26.8039C22.4099 27.0699 22.32 27.3831 22.1392 27.6152C22.0997 27.6789 22.2828 27.5382 22.2981 27.5215C22.3729 27.44 22.4399 27.3493 22.5044 27.2577C22.7324 26.9347 22.9804 26.6387 23.2304 26.3363C23.9859 25.4225 24.7734 24.5403 25.5388 23.6364C27.2092 21.6638 28.9384 19.7065 30.5285 17.6571C30.9059 17.1707 31.3169 16.7063 31.713 16.2376C31.8793 16.0408 32.194 15.7742 32.2727 15.5242C31.9144 15.6558 31.3998 15.5268 31.0236 15.5244C30.0816 15.5187 29.1399 15.5091 28.1981 15.495C27.817 15.4893 27.1013 15.6328 26.7681 15.4446C27.7971 13.2184 28.4616 10.7953 29.4282 8.5364C29.6591 7.99659 29.8917 7.4557 30.1151 6.91227C30.1454 6.83859 30.3229 6.48893 30.2403 6.44847C27.9056 9.25275 25.7589 12.2678 23.4807 15.1315C22.6189 16.215 21.8387 17.5076 20.8533 18.4573Z" fill="#4C51BF"/>
<path fill-rule="evenodd" clip-rule="evenodd" d="M2.08611 5.53913C2.40199 4.2951 3.4143 4.30639 4.38903 4.32683C4.74465 4.33429 5.16083 4.3032 5.49229 4.47206C6.1523 4.8083 6.51571 5.69586 6.30966 6.45778C6.00332 7.59065 5.0284 7.69137 4.10995 7.65432C3.68929 7.63728 3.26376 7.65709 2.87855 7.43797C2.29605 7.10641 1.90616 6.24781 2.08611 5.53913Z" fill="#F8FAFC"/>
<path fill-rule="evenodd" clip-rule="evenodd" d="M3.54463 26.6248C3.9316 24.4259 7.03651 25.0792 6.69453 27.2497C6.34612 29.461 3.15824 28.8202 3.54463 26.6248Z" fill="#F8FAFC"/>
</svg>
