<svg width="108" height="78" viewBox="0 0 108 78" fill="none" xmlns="http://www.w3.org/2000/svg">
<path d="M50.637 30.7317L49.0217 29.0531L61.4055 4.85546L59.6635 4.38037L66.3464 5.42556L67.9617 7.00917L69.2602 7.73763L71.0022 9.38459L73.1243 11.3483L74.9296 14.1988L76.3865 18.0628V24.7773L71.509 31.2384V38.8715L64.7945 34.7224L55.4828 33.3922L50.637 30.7317Z" fill="#1E293B"/>
<path fill-rule="evenodd" clip-rule="evenodd" d="M50.5658 30.7579C51.0912 30.8619 51.6073 31.0105 52.1347 31.104C52.5739 31.1819 53.0339 31.1917 53.4613 31.334C54.1182 31.5527 54.7109 32.0339 55.3469 32.322C56.76 32.9624 58.1854 33.4498 59.6965 33.7213C60.8354 33.9261 62.0812 33.9941 63.2295 33.8529C63.6439 33.802 64.0599 33.7624 64.4704 33.681C64.6381 33.6478 64.8615 33.526 65.0307 33.5869C65.2607 33.6693 65.4901 33.9008 65.6909 34.0458C66.1164 34.3529 66.5391 34.6644 66.9642 34.9717C68.3652 35.9849 69.7213 37.0869 71.1264 38.0869C71.0713 37.0426 70.8512 35.9617 70.7114 34.9244C70.5478 33.7111 70.445 32.4879 70.245 31.2803C74.2541 28.8393 76.8462 23.903 76.2435 18.8417C75.9806 16.6335 75.1973 14.5326 74.0083 12.7291C73.1555 11.4353 72.0704 10.2138 70.8454 9.33755C70.175 8.858 69.3187 8.562 68.6992 8.02432C68.3602 7.73002 68.1335 7.28071 67.8355 6.93787C67.3654 6.39699 66.822 5.96598 66.3305 5.45577C66.34 5.36825 66.9313 5.62591 67.0493 5.66382C67.7631 5.89337 68.4842 6.23451 69.1563 6.58182C71.7646 7.92955 74.126 9.97873 75.6571 12.6868C78.3213 17.3984 78.3986 23.2676 75.5751 27.9328C74.5677 29.5976 73.2515 30.8629 71.7798 32.0141C71.7823 32.6836 71.9294 33.4349 72.0392 34.0937C72.3163 35.756 72.4507 37.4713 72.6332 39.1488C72.7053 39.812 72.8953 40.5926 72.8626 41.2517C72.6295 41.1412 72.3861 40.8735 72.181 40.704C71.7734 40.3673 71.3445 40.0539 70.9262 39.7334C69.5065 38.6454 68.0667 37.5831 66.6296 36.523C66.2056 36.2102 65.7747 35.9082 65.3528 35.5922C65.1622 35.4493 64.9357 35.1866 64.7107 35.1208C64.4135 35.0341 63.9709 35.2264 63.6678 35.2675C62.9697 35.362 62.2693 35.3921 61.5657 35.3725C59.5637 35.3173 57.6004 34.839 55.7224 34.0912C54.2766 33.5154 52.8923 32.7021 51.6492 31.71C51.3652 31.4834 51.0661 31.2775 50.7892 31.0399C50.7078 30.97 50.5446 30.8736 50.5658 30.7579Z" fill="#F8FAFC"/>
<path fill-rule="evenodd" clip-rule="evenodd" d="M31.0183 19.3851C31.2933 17.5906 33.3326 17.9946 34.5365 17.9914C37.0944 17.9846 39.6524 17.955 42.2105 17.9705C43.0773 17.9756 44.4663 18.2961 45.151 17.5563C46.0137 16.6241 45.3136 15.1481 44.1991 15.07C42.7096 14.9652 41.189 15.0606 39.6966 15.063C39.1005 15.0638 38.4444 15.1569 37.857 15.0293C36.9335 14.8287 36.4168 13.7052 36.7056 12.7523C37.0912 11.4793 38.3647 11.5845 39.3579 11.59C41.9699 11.6049 44.5833 11.5707 47.1957 11.5664C48.3032 11.5645 50.21 11.8107 50.5493 10.2046C50.8106 8.96804 50.0774 7.86477 48.934 7.72849C47.9813 7.61499 46.9832 7.7008 46.0252 7.69868C44.1295 7.69463 42.234 7.70272 40.3381 7.7123C39.8553 7.71464 39.3527 7.73232 38.9262 7.4457C38.139 6.91674 37.985 5.67825 38.553 4.9076C39.187 4.04773 40.4047 4.3105 41.2977 4.31093C43.7182 4.31284 46.139 4.23639 48.5584 4.15995C50.4069 4.1016 52.2613 4.11459 54.1089 4.03644C58.7062 3.84202 63.8601 4.30645 67.091 8.39288C67.6753 9.13201 68.2138 9.89265 68.6428 10.7519C69.2154 11.8982 69.6771 13.0966 69.9239 14.3786C70.2341 15.9891 70.3083 17.6053 70.0845 19.2371C69.8814 20.7194 69.444 22.1956 68.799 23.518C68.2504 24.6427 67.5454 25.6519 66.7087 26.5399C66.0211 27.2694 65.2362 27.923 64.4056 28.4459C62.9693 29.3499 61.3922 29.9919 59.7425 30.2257C57.6135 30.5273 55.6005 30.043 53.5111 29.6957C51.7527 29.4033 50.0063 29.1583 48.2403 28.9459C46.1966 28.7002 44.0884 28.7594 42.035 28.7502C41.1652 28.7462 39.9732 28.9796 39.2686 28.2962C38.4339 27.4868 38.5787 25.8131 39.7007 25.3785C40.1017 25.2232 40.5705 25.2699 40.9884 25.2716C41.7468 25.2748 42.5053 25.2739 43.2639 25.2733C43.749 25.2728 44.2703 25.3167 44.7362 25.141C45.9466 24.6845 46.1553 22.8353 45.2096 21.9633C44.3541 21.1741 42.9702 21.4222 41.9314 21.4275C39.369 21.4407 36.8061 21.4326 34.2436 21.4283C33.0525 21.4264 31.3854 21.716 31.0413 20.0369C30.9985 19.8278 30.9858 19.5974 31.0183 19.3851ZM50.8533 18.4573C50.8518 18.4749 50.8505 18.4925 50.8491 18.5101C50.8491 18.5106 50.8491 18.5111 50.849 18.5116C52.1122 18.5717 53.4207 18.4528 54.6938 18.4682C55.1314 18.4733 55.6878 18.3715 56.1106 18.4922C55.2944 20.663 54.3535 22.811 53.4012 24.9153C53.1167 25.5439 52.8464 26.1877 52.5414 26.8039C52.4099 27.0699 52.32 27.3831 52.1392 27.6152C52.0997 27.6789 52.2828 27.5382 52.2981 27.5215C52.3729 27.44 52.4399 27.3493 52.5044 27.2577C52.7324 26.9347 52.9804 26.6387 53.2304 26.3363C53.9859 25.4225 54.7734 24.5403 55.5388 23.6364C57.2092 21.6638 58.9384 19.7065 60.5285 17.6571C60.9059 17.1707 61.3169 16.7063 61.713 16.2376C61.8793 16.0408 62.194 15.7742 62.2727 15.5242C61.9144 15.6558 61.3998 15.5268 61.0236 15.5244C60.0816 15.5187 59.1399 15.5091 58.1981 15.495C57.817 15.4893 57.1013 15.6328 56.7681 15.4446C57.7971 13.2184 58.4616 10.7953 59.4282 8.5364C59.6591 7.99659 59.8917 7.4557 60.1151 6.91227C60.1454 6.83859 60.3229 6.48893 60.2403 6.44847C57.9056 9.25275 55.7589 12.2678 53.4807 15.1315C52.6189 16.215 51.8387 17.5076 50.8533 18.4573Z" fill="#F8FAFC"/>
<path d="M50.8533 18.4573C50.8518 18.4749 50.8505 18.4925 50.8491 18.5101L50.849 18.5116C52.1122 18.5717 53.4207 18.4528 54.6938 18.4682C55.1314 18.4733 55.6878 18.3715 56.1106 18.4922C55.2944 20.663 54.3535 22.811 53.4012 24.9153C53.1167 25.5439 52.8464 26.1877 52.5414 26.8039C52.4099 27.0699 52.32 27.3831 52.1392 27.6152C52.0997 27.6789 52.2828 27.5382 52.2981 27.5215C52.3729 27.44 52.4399 27.3493 52.5044 27.2577C52.7324 26.9347 52.9804 26.6387 53.2304 26.3363C53.9859 25.4225 54.7734 24.5403 55.5388 23.6364C57.2092 21.6638 58.9384 19.7065 60.5285 17.6571C60.9059 17.1707 61.3169 16.7063 61.713 16.2376C61.8793 16.0408 62.194 15.7742 62.2727 15.5242C61.9144 15.6558 61.3998 15.5268 61.0236 15.5244C60.0816 15.5187 59.1399 15.5091 58.1981 15.495C57.817 15.4893 57.1013 15.6328 56.7681 15.4446C57.7971 13.2184 58.4616 10.7953 59.4282 8.5364C59.6591 7.99659 59.8917 7.4557 60.1151 6.91227C60.1454 6.83859 60.3229 6.48893 60.2403 6.44847C57.9056 9.25275 55.7589 12.2678 53.4807 15.1315C52.6189 16.215 51.8387 17.5076 50.8533 18.4573Z" fill="#4C51BF"/>
<path fill-rule="evenodd" clip-rule="evenodd" d="M32.0862 5.53913C32.4021 4.2951 33.4144 4.30639 34.3891 4.32683C34.7447 4.33429 35.1609 4.3032 35.4924 4.47206C36.1524 4.8083 36.5158 5.69586 36.3097 6.45778C36.0034 7.59065 35.0285 7.69137 34.11 7.65432C33.6894 7.63728 33.2638 7.65709 32.8786 7.43797C32.2961 7.10641 31.9062 6.24781 32.0862 5.53913Z" fill="#F8FAFC"/>
<path fill-rule="evenodd" clip-rule="evenodd" d="M33.5446 26.6248C33.9316 24.4259 37.0365 25.0792 36.6945 27.2497C36.3461 29.461 33.1582 28.8202 33.5446 26.6248Z" fill="#F8FAFC"/>
<path fill-rule="evenodd" clip-rule="evenodd" d="M0.0545648 56.4187C0.317695 56.1386 1.40222 56.2957 1.79753 56.2948C3.50086 56.2904 5.20444 56.2814 6.90753 56.2777C10.2603 56.2701 13.6367 56.7287 16.0996 59.0909C20.0892 62.917 19.9378 69.9079 15.8008 73.588C13.8471 75.326 11.1107 76.1118 8.46293 76.2144C6.57474 76.2874 4.6735 76.2315 2.78384 76.2271C2.18422 76.2257 1.58412 76.2165 0.984506 76.2204C0.679531 76.2225 0.318187 76.2853 0.0208425 76.2262C-0.00623362 73.1702 0.0208426 70.1121 0.0292116 67.0559C0.0336422 65.4325 -0.0416782 63.7927 0.0336426 62.1713C0.259359 62.0024 0.679777 62.0674 0.961861 62.0697C1.77439 62.0759 2.58815 62.0768 3.40068 62.069C3.63944 62.0667 4.23389 61.9638 4.37567 62.1628C4.28287 63.3144 4.35967 64.5025 4.36385 65.658C4.37222 67.9531 4.38576 70.2471 4.40914 72.5415C6.89276 72.3144 9.37736 72.9761 11.6493 71.6711C15.5775 69.4143 15.3949 63.1663 11.5912 60.9049C10.0476 59.9871 8.16509 60.0608 6.41548 60.0486C4.34342 60.034 2.2529 59.8989 0.182315 60.0003C0.00410503 59.8899 0.109456 59.2822 0.108225 59.0837C0.103549 58.1946 0.0612108 57.3075 0.0545648 56.4187Z" fill="#4C51BF"/>
<path fill-rule="evenodd" clip-rule="evenodd" d="M20.1638 61.3189C21.504 61.3031 22.9283 61.448 24.2575 61.287C25.1735 64.5746 26.0864 67.8909 27.1193 71.147C27.2434 71.1207 27.29 70.6802 27.3266 70.5751C27.5403 69.9624 27.7108 69.3339 27.9241 68.7198C28.4033 67.3397 28.9025 65.9633 29.358 64.5755C29.7121 63.4961 30.0292 62.3483 30.5188 61.3199C31.2488 61.2821 31.9886 61.3012 32.72 61.297C32.9893 61.2956 33.4318 61.1922 33.6657 61.3026C34.6118 63.6774 35.2732 66.1768 36.1469 68.5814C36.3659 69.1845 36.5736 69.7995 36.7575 70.4132C36.8027 70.5639 36.8625 70.9466 37.0102 71.0177C37.4576 69.0086 38.1436 67.0358 38.6727 65.0435C38.8874 64.2348 39.1175 63.4301 39.3353 62.6221C39.4477 62.2045 39.5218 61.7051 39.7284 61.3229C41.147 61.2875 42.5692 61.3418 43.9873 61.3157C44.0655 61.4077 43.7596 62.0136 43.7173 62.1495C43.4249 63.0922 43.1248 64.0346 42.8145 64.972C41.5805 68.6982 40.2931 72.4449 39.2138 76.2156C38.8633 76.2785 38.4387 76.2121 38.0807 76.2081C37.1453 76.1976 36.1512 76.1177 35.2227 76.2335C35.1087 76.1091 35.0692 75.8159 35.014 75.65C34.8834 75.2564 34.7536 74.8632 34.6113 74.4736C34.0353 72.8968 33.5397 71.2911 32.9766 69.7094C32.7595 69.0992 32.5304 68.4887 32.3425 67.8694C32.2987 67.725 32.0823 66.9338 32.003 66.9822C31.783 68.068 31.2469 69.1633 30.8598 70.2053C30.3653 71.5365 29.9256 72.8877 29.4654 74.2296C29.2487 74.8618 28.8865 75.5397 28.8016 76.2032C28.4281 76.3139 27.8639 76.2007 27.4691 76.1988C26.5856 76.1951 25.6414 76.3039 24.7653 76.2049C23.4149 72.6278 22.4623 68.8914 21.2615 65.263C20.8459 64.0069 20.5815 62.6091 20 61.4178C20.0545 61.3849 20.1093 61.352 20.1638 61.3189Z" fill="#4C51BF"/>
<path fill-rule="evenodd" clip-rule="evenodd" d="M46.0438 56.9351C46.1248 56.6115 46.3158 56.272 46.5566 56.0063C48.1205 54.2804 51.4461 55.7945 50.9501 57.7449C50.427 59.8016 46.5063 59.7258 46.0423 57.6831C45.9875 57.4424 45.9838 57.1752 46.0438 56.9351Z" fill="#4C51BF"/>
<path fill-rule="evenodd" clip-rule="evenodd" d="M46.0584 61.3141C47.3261 61.3143 48.6886 61.1679 49.9458 61.323C49.9246 64.7129 49.9504 68.1047 49.9543 71.4951C49.9557 72.5866 49.9591 73.6779 49.9587 74.7695C49.9582 75.2258 50.0395 75.745 49.9753 76.1938C48.7068 76.3947 47.3312 75.9908 46.0492 76.2041C45.9427 75.5362 46.0568 74.7475 46.0577 74.0676C46.0595 72.6257 46.0551 71.1835 46.0531 69.7414C46.0508 67.8703 46.0466 65.9993 46.0457 64.1284C46.0452 63.2139 45.9351 62.2187 46.0584 61.3141Z" fill="#4C51BF"/>
<path fill-rule="evenodd" clip-rule="evenodd" d="M55.0319 69.3893C55.2294 67.6964 55.0461 65.8738 55.0479 64.1682C55.0505 61.5744 55.1715 58.9472 55.0505 56.3579C55.3333 56.2141 55.818 56.303 56.1345 56.302C57.0208 56.2997 57.9758 56.198 58.8552 56.2905C59.0262 57.5563 58.8618 58.968 58.8625 60.2477C58.8637 62.9397 58.865 65.6315 58.873 68.3236C58.876 69.3231 58.8783 70.3231 58.8863 71.3227C58.8895 71.7267 58.7811 72.3119 58.9076 72.6898C60.6171 72.5648 62.3636 72.6781 64.0774 72.6825C65.3541 72.6857 66.7306 72.5496 67.994 72.7464C67.8872 73.8362 67.9005 75.1096 68 76.201C66.8789 76.0667 65.664 76.192 64.5344 76.2031C62.4366 76.2236 60.3386 76.2197 58.2405 76.2183C57.1945 76.2174 56.1105 76.2972 55.0688 76.2132C55.0482 73.9469 54.9505 71.6536 55.0319 69.3893Z" fill="#F8FAFC"/>
<path fill-rule="evenodd" clip-rule="evenodd" d="M70.029 56.9173C70.0799 56.6432 70.2036 56.382 70.3752 56.1429C71.1552 55.0555 73.0846 54.9989 74.1841 55.7789C74.825 56.2335 75.1 56.9524 74.9675 57.6211C74.9149 57.8856 74.8011 58.1478 74.6335 58.3795C73.8649 59.4412 71.8963 59.5022 70.8096 58.7332C70.1767 58.2851 69.9058 57.5808 70.029 56.9173Z" fill="#F8FAFC"/>
<path fill-rule="evenodd" clip-rule="evenodd" d="M71.0262 62.3116C71.9222 62.2565 72.8275 62.2931 73.7257 62.2886C74.0963 62.2869 74.6335 62.1932 74.9773 62.3111C74.909 63.1249 74.9833 63.9713 74.98 64.7889C74.973 66.5522 74.9674 68.3151 74.9807 70.0782C74.9957 72.0974 74.7978 74.1977 75 76.2069C73.709 76.2563 72.3708 76.268 71.0803 76.2261C70.922 75.0132 71.047 73.7237 71.045 72.5009C71.0414 70.2975 71.0359 68.0941 71.0366 65.8907C71.0368 64.7025 71.1025 63.4976 71.0262 62.3116Z" fill="#F8FAFC"/>
<path fill-rule="evenodd" clip-rule="evenodd" d="M77.0647 61.309C78.335 61.275 79.6114 61.3333 80.8806 61.2579C81.0605 61.5093 81.1069 61.8947 81.2174 62.1879C81.5171 62.9826 81.7914 63.7935 82.0653 64.5985C82.9098 67.0813 83.8436 69.5343 84.52 72.0705C84.654 72.095 84.7074 71.5971 84.7415 71.488C84.946 70.8368 85.169 70.1967 85.3997 69.5553C86.0815 67.661 86.752 65.7615 87.4149 63.8602C87.7034 63.0329 87.9166 62.07 88.3086 61.2954C89.136 61.276 89.9637 61.2778 90.7916 61.2743C91.182 61.2727 91.6155 61.2147 92 61.2912C91.0594 63.5286 90.2775 65.8748 89.4306 68.1552C88.4341 70.8377 87.3195 73.4795 86.3924 76.19C86.2151 76.3117 85.7326 76.2162 85.5167 76.2137C84.8569 76.2057 84.1974 76.2027 83.5374 76.205C83.2795 76.206 82.8875 76.2981 82.6523 76.1935C82.439 75.334 82.0406 74.508 81.7308 73.6821C81.089 71.9706 80.4227 70.2684 79.7681 68.5619C79.1151 66.8593 78.4825 65.1475 77.7985 63.4579C77.5201 62.7706 77.3293 62.0337 77 61.371C77.0216 61.3501 77.0431 61.3295 77.0647 61.309Z" fill="#F8FAFC"/>
<path fill-rule="evenodd" clip-rule="evenodd" d="M93.0321 68.4868C93.3042 66.6862 93.7606 64.9264 95.0907 63.5847C97.9449 60.7057 103.319 60.3098 106.176 63.4215C107.99 65.3972 108.063 67.8875 107.978 70.4036C107.829 70.5113 107.376 70.4316 107.191 70.4333C106.459 70.4395 105.726 70.4398 104.994 70.4434C102.324 70.4563 99.6155 70.3361 96.9552 70.5527C97.1609 71.3701 97.5317 72.219 98.1145 72.8418C99.2999 74.1078 101.374 74.2629 102.932 73.7503C103.445 73.5813 103.915 73.3025 104.336 72.9641C104.522 72.8142 104.752 72.5038 104.985 72.4598C105.652 73.2123 106.345 74.0341 107.203 74.576C106.612 75.5161 105.418 76.2387 104.416 76.6384C101.619 77.7527 98.0261 77.3542 95.6826 75.3972C93.6672 73.7137 92.8187 71.0573 93.0321 68.4868ZM96.9798 67.5234C96.9399 67.7164 96.9612 67.6192 96.9162 67.8154C98.4481 67.8935 99.9966 67.8372 101.53 67.842C102.465 67.8449 103.466 67.9485 104.393 67.8399C104.408 67.4737 104.281 67.0934 104.167 66.7499C103.546 64.8745 101.622 64.0784 99.7589 64.571C98.2868 64.9599 97.4039 66.113 96.9798 67.5234Z" fill="#F8FAFC"/>
</svg>
